<svg id="Lag_1" data-name="Lag 1" xmlns="http://www.w3.org/2000/svg" viewBox="0 0 328.2663 78.2874"><defs><style>.cls-1{fill:#fff;}.cls-2,.cls-3,.cls-4,.cls-5{fill:none;stroke-miterlimit:10;stroke-width:3px;}.cls-2{stroke:#70ad47;}.cls-3{stroke:#4472c4;}.cls-4{stroke:#9dc3e6;}.cls-5{stroke:#bdd7ee;}</style></defs><title>REEEMlogo.transparent.1</title><path class="cls-1" d="M162.1809,170.4719l-6.5672-9.2338a20.6011,20.6011,0,0,1-2.2981.1228H145.6v9.111h-3.0372V141.7436h10.7527c7.3056,0,11.7376,3.6935,11.7376,9.8494a8.9048,8.9048,0,0,1-6.5665,9.0288l7.0178,9.85Zm-.1643-18.8789c0-4.5962-3.0372-7.2228-8.7831-7.2228H145.6V158.775h7.6334C158.9794,158.775,162.0166,156.1077,162.0166,151.593Z" transform="translate(-114.2337 -118.1275)"/><path class="cls-1" d="M228.9583,167.8453v2.6266h-20.315V141.7436h19.6994V144.37H211.6805V154.59h14.8569v2.5851H211.6805v10.6707Z" transform="translate(-114.2337 -118.1275)"/><path class="cls-1" d="M291.3627,167.8453v2.6266h-20.315V141.7436h19.6994V144.37H274.0849V154.59h14.8569v2.5851H274.0849v10.6707Z" transform="translate(-114.2337 -118.1275)"/><path class="cls-1" d="M352.722,167.8453v2.6266H332.407V141.7436h19.6994V144.37H335.4442V154.59h14.8569v2.5851H335.4442v10.6707Z" transform="translate(-114.2337 -118.1275)"/><path class="cls-1" d="M418.0731,140.4682v28.7283h-2.9137V146.2134l-11.2862,19.33h-1.4361L391.1509,146.337v22.8595h-2.9144V140.4682H390.74l12.4767,21.3,12.3531-21.3Z" transform="translate(-114.2337 -118.1275)"/><path class="cls-2" d="M184.995,177.701a37.6437,37.6437,0,1,1,.0524-40.7783" transform="translate(-114.2337 -118.1275)"/><path class="cls-3" d="M248.6417,179.0672a37.6437,37.6437,0,1,1,.1105-43.4355" transform="translate(-114.2337 -118.1275)"/><path class="cls-4" d="M310.7354,179.5372a37.6437,37.6437,0,1,1-.1884-44.7865" transform="translate(-114.2337 -118.1275)"/><path class="cls-5" d="M371.9277,179.7062a37.6437,37.6437,0,1,1,.1633-44.6482" transform="translate(-114.2337 -118.1275)"/><circle class="cls-2" cx="289.1226" cy="39.1437" r="37.6437"/></svg>